<svg width="34" height="35" viewBox="0 0 34 35" fill="none" xmlns="http://www.w3.org/2000/svg">
<rect x="0.142151" y="0.919434" width="33.4113" height="33.4113" rx="5.56856" fill="#E8F5E9"/>
<g clip-path="url(#clip0_211_2511)">
<path fill-rule="evenodd" clip-rule="evenodd" d="M7.34882 1.05478C11.1931 1.05478 14.3095 4.17119 14.3095 8.01547V1.05478H21.2702C25.1145 1.05478 28.2309 4.17119 28.2309 8.01547C28.2309 11.8597 25.1145 14.9762 21.2702 14.9762C25.1145 14.9762 28.2309 18.0926 28.2309 21.9369C28.2309 23.8457 27.4625 25.5751 26.2182 26.8326L26.1922 26.8588L26.1691 26.8818C24.9113 28.1279 23.1806 28.8976 21.2702 28.8976C19.3728 28.8976 17.6527 28.1384 16.397 26.9071C16.3807 26.8911 16.3644 26.875 16.3482 26.8588C16.333 26.8436 16.3178 26.8283 16.3027 26.8129C15.0699 25.5571 14.3095 23.8357 14.3095 21.9369C14.3095 25.7811 11.1931 28.8976 7.34882 28.8976C3.50453 28.8976 0.388123 25.7811 0.388123 21.9369V14.9762H7.34882C3.50453 14.9762 0.388123 11.8597 0.388123 8.01547C0.388123 4.17119 3.50453 1.05478 7.34882 1.05478ZM12.9174 8.01547C12.9174 11.0909 10.4243 13.584 7.34882 13.584V2.44692C10.4243 2.44692 12.9174 4.94004 12.9174 8.01547ZM26.8388 21.9369C26.8388 18.8614 24.3457 16.3683 21.2702 16.3683C18.1948 16.3683 15.7017 18.8614 15.7017 21.9369H26.8388ZM1.78026 16.3683V21.9369C1.78026 25.0123 4.27339 27.5054 7.34882 27.5054C10.4243 27.5054 12.9174 25.0123 12.9174 21.9369V16.3683H1.78026ZM15.7017 13.584V2.44692H21.2702C24.3457 2.44692 26.8388 4.94004 26.8388 8.01547C26.8388 11.0909 24.3457 13.584 21.2702 13.584H15.7017Z" fill="#5417D7"/>
</g>
<defs>
<clipPath id="clip0_211_2511">
<rect width="27.8428" height="27.8428" fill="white" transform="translate(0.388123 1.05478)"/>
</clipPath>
</defs>
</svg>
