<svg width="34" height="35" viewBox="0 0 34 35" fill="none" xmlns="http://www.w3.org/2000/svg">
<rect x="-0.00732422" y="0.919418" width="33.4113" height="33.4113" rx="5.56856" fill="#F5F7FA"/>
<g clip-path="url(#clip0_211_2521)">
<path d="M30.6174 10.2547C30.6174 10.2782 30.6174 10.3077 30.6112 10.3253C30.5806 10.5548 30.5806 10.7843 30.599 11.0197C30.6112 11.0785 30.6235 11.1373 30.6726 11.1844C30.7522 11.2727 30.8748 11.255 30.9239 11.1491C30.9484 11.0962 30.9484 11.0432 30.9362 10.9902C30.8748 10.7666 30.8626 10.5313 30.8565 10.3018C30.8565 10.29 30.8565 10.2724 30.8565 10.2547C30.9239 10.2488 30.9852 10.2429 31.0404 10.2429C31.0833 10.2371 31.1201 10.2312 31.1508 10.2135C31.2427 10.1664 31.2427 10.0664 31.1446 10.0193C31.1078 10.0017 31.0588 9.9958 31.0159 9.9958C30.8626 10.0017 30.7093 10.0017 30.556 10.0017C30.5009 10.0017 30.4457 10.0076 30.3905 10.0135C30.3598 10.0193 30.3231 10.0193 30.2986 10.037C30.2556 10.0546 30.2311 10.0841 30.2311 10.1253C30.2373 10.1664 30.2556 10.19 30.2986 10.2076C30.3231 10.2253 30.3537 10.2312 30.3844 10.2312C30.4579 10.2371 30.5377 10.2488 30.6174 10.2547ZM32.3033 10.5254C32.3033 10.5313 32.3094 10.5372 32.3094 10.5372C32.334 10.696 32.3585 10.849 32.3769 11.002C32.3831 11.055 32.3892 11.102 32.426 11.1432C32.5056 11.2433 32.6283 11.2315 32.6834 11.1256C32.708 11.0726 32.7141 11.0197 32.7018 10.9608C32.6651 10.7843 32.6466 10.6078 32.6099 10.4371C32.5853 10.3312 32.5547 10.2312 32.5241 10.137C32.5056 10.0782 32.4627 10.037 32.3892 10.0311C32.3156 10.0193 32.2604 10.0546 32.2298 10.1076C32.193 10.1547 32.1623 10.2018 32.1378 10.2547C32.0949 10.3489 32.0581 10.443 32.0091 10.5313C32.0029 10.5548 31.9968 10.5725 31.9845 10.5901C31.9784 10.5783 31.9723 10.5725 31.9723 10.5725C31.8926 10.4254 31.819 10.2782 31.7393 10.137C31.727 10.1253 31.7209 10.1135 31.7148 10.1017C31.678 10.0488 31.6351 10.0193 31.5677 10.0193C31.5063 10.0252 31.4573 10.0605 31.4266 10.1135C31.4144 10.137 31.4144 10.1547 31.4082 10.1782C31.3837 10.3665 31.353 10.5548 31.3285 10.7431C31.3163 10.849 31.3101 10.9549 31.3101 11.0608C31.304 11.0844 31.3101 11.1138 31.3224 11.1373C31.3347 11.1844 31.3715 11.2138 31.4205 11.2197C31.4818 11.2256 31.5247 11.208 31.5431 11.1609C31.5615 11.1256 31.5676 11.0962 31.5738 11.0667C31.5983 10.9608 31.6167 10.8608 31.6351 10.7608C31.6473 10.7019 31.6535 10.6548 31.6719 10.5901C31.6841 10.6136 31.6964 10.6313 31.7087 10.6489C31.7638 10.7196 31.819 10.7902 31.8864 10.849C31.9539 10.8961 32.0091 10.8902 32.0642 10.8372C32.0765 10.8255 32.0826 10.8196 32.0949 10.8078C32.1501 10.7254 32.2175 10.6431 32.2727 10.5607C32.285 10.5489 32.2911 10.5372 32.3033 10.5254Z" fill="#3A3B7B"/>
<path d="M18.1771 10.3703C18.1345 10.4822 18.1264 10.5627 18.146 10.6297C18.1678 10.7207 18.2242 10.7506 18.3007 10.7274C19.0208 10.5565 20.5999 11.0416 21.1845 11.1768C21.3224 11.2052 21.4346 11.0344 21.3405 10.8812C21.2032 10.7329 19.6248 10.0979 19.0226 10.0632C18.7865 10.0504 18.3645 9.99234 18.1771 10.3703Z" fill="#3A3B7B"/>
<path d="M24.3484 8.31465C24.4252 8.35717 24.4681 8.39772 24.4892 8.44304C24.5208 8.50247 24.5041 8.5436 24.4511 8.56458C23.9751 8.78756 23.3417 9.7475 23.086 10.0786C23.0241 10.1547 22.8811 10.1105 22.8595 9.98523C22.8639 9.84362 23.4254 8.80187 23.7388 8.51813C23.8619 8.40735 24.0654 8.18999 24.3484 8.31465Z" fill="#3A3B7B"/>
<path d="M20.5577 7.84214C20.6499 7.77545 20.7458 7.75208 20.7947 7.79542C21.5129 8.38492 21.8937 9.31845 22.1296 10.1731C22.1384 10.193 22.139 10.2215 22.1319 10.2514C22.129 10.2768 22.1096 10.3037 22.0788 10.3246C22.0459 10.3476 22.0175 10.3546 22.0042 10.3347C21.6894 9.92384 19.8917 8.32506 20.5577 7.84214Z" fill="#3A3B7B"/>
<path d="M5.34916 18.0626C5.52129 17.9396 5.70842 17.8372 5.90644 17.7577C6.11362 17.7009 6.33445 17.7103 6.53556 17.7846C6.73662 17.8589 6.90706 17.994 7.021 18.1696C7.12294 18.3446 7.1628 18.5468 7.13467 18.7455C7.10653 18.9442 7.01189 19.1288 6.86495 19.2714C6.75106 19.387 6.62174 19.4877 6.48045 19.5709C5.85073 19.9614 5.2154 20.3304 4.5801 20.7209C4.45011 20.8186 4.3122 20.9063 4.16771 20.983C3.94792 21.0882 3.69675 21.1164 3.4576 21.0626C3.21846 21.009 3.0064 20.8767 2.85809 20.6888C2.74722 20.5558 2.65365 20.4103 2.57944 20.2556C1.97758 19.0414 1.35342 17.8326 0.773842 16.597C0.506343 16.0622 0.289003 15.4471 0.0772347 14.8534C-0.0143861 14.6809 -0.0322775 14.4809 0.02737 14.2959C0.0870175 14.1109 0.219498 13.9556 0.396631 13.8629C0.573765 13.7703 0.781572 13.7476 0.975863 13.7997C1.17015 13.8518 1.3356 13.9746 1.43701 14.142C1.74871 14.5396 2.02464 14.9619 2.26179 15.4043C2.86366 16.474 3.43767 17.5438 4.01724 18.5814C4.05099 18.6388 4.0882 18.6941 4.1287 18.7472C4.56493 18.5712 4.97523 18.341 5.34916 18.0626Z" fill="#3A3B7B"/>
<path d="M11.572 17.6894C10.1956 19.2352 7.8884 18.8447 6.72925 16.855C5.90446 15.4429 5.75957 13.1109 7.55405 11.64C7.93724 11.3321 8.39544 11.1223 8.88594 11.0303C9.48734 10.9475 10.1006 11.0493 10.6381 11.3212C11.1755 11.5931 11.6097 12.021 11.8786 12.544C12.8594 14.2555 12.7201 16.4378 11.572 17.6894ZM11.0148 14.0844C10.8685 13.6638 10.5752 13.3047 10.1844 13.0681C9.9633 12.9168 9.69461 12.8433 9.42364 12.8599C9.15261 12.8764 8.89585 12.9821 8.69647 13.159C7.89957 13.8383 7.73235 15.4483 8.31193 16.4057C8.38582 16.5618 8.49429 16.7006 8.62987 16.8122C8.76545 16.9239 8.92482 17.0058 9.09681 17.0521C9.2688 17.0985 9.44925 17.1082 9.62558 17.0807C9.80192 17.053 9.96979 16.9888 10.1176 16.8924C10.5496 16.571 10.8665 16.1283 11.0243 15.6261C11.1821 15.1238 11.1729 14.5868 10.9981 14.0897L11.0148 14.0844Z" fill="#3A3B7B"/>
<path d="M17.1895 14.7583C17.0486 14.7874 16.903 14.7892 16.7614 14.7634C16.6198 14.7377 16.4849 14.6851 16.3648 14.6086C16.2597 14.5509 16.1692 14.4716 16.0998 14.3763C16.0305 14.281 15.984 14.1722 15.9638 14.0576C15.9435 13.943 15.95 13.8256 15.9827 13.7137C16.0154 13.6018 16.0736 13.4982 16.153 13.4105C16.2913 13.2341 16.4877 13.1079 16.7103 13.0521C17.2913 12.8903 17.8895 12.7916 18.4936 12.758C18.6263 12.7431 18.7608 12.7539 18.8891 12.7897C19.0174 12.8254 19.137 12.8854 19.2408 12.9661C19.3446 13.0468 19.4306 13.1467 19.4937 13.2597C19.5567 13.3728 19.5957 13.4968 19.6082 13.6244C19.7823 14.2516 19.8014 14.9091 19.6639 15.5446C19.1623 17.5985 17.4347 18.3045 15.4954 17.6466C14.951 17.4708 14.4737 17.143 14.1245 16.7053C13.6587 16.1782 13.3285 15.5534 13.1603 14.8814C13.0242 14.2829 13.0391 13.6619 13.2039 13.0702C13.3687 12.4784 13.6786 11.933 14.1077 11.4796C14.515 10.9868 15.0436 10.599 15.6459 10.351C16.0264 10.1497 16.4718 10.0925 16.8942 10.1906C16.99 10.216 17.077 10.2656 17.1461 10.3342C17.2152 10.4028 17.264 10.4879 17.2873 10.5807C17.3106 10.6734 17.3076 10.7705 17.2787 10.8618C17.2497 10.9531 17.1959 11.0353 17.1227 11.0999C16.9835 11.2208 16.8323 11.3283 16.6713 11.4208C16.1758 11.7236 15.7447 12.1138 15.4006 12.5707C15.1751 12.8664 15.0198 13.206 14.9457 13.5654C14.8715 13.9248 14.8804 14.2955 14.9716 14.6514C15.0979 15.1366 15.3784 15.5721 15.774 15.8976C17 16.9674 18.5939 15.9351 18.3152 14.4749C17.9085 14.5712 17.5518 14.6728 17.1895 14.7583Z" fill="#3A3B7B"/>
<path d="M24.6795 17.775C22.8683 18.8448 20.8064 17.775 20.355 15.5286C20.0262 13.924 20.6503 11.6775 22.8349 10.8217C23.2997 10.6436 23.8038 10.581 24.3006 10.6399C24.8973 10.7447 25.4448 11.0267 25.8657 11.446C26.2866 11.8654 26.5598 12.4009 26.6467 12.9773C27.0145 14.8867 26.1786 16.9246 24.6795 17.775ZM25.3093 14.1753C25.3087 13.731 25.1449 13.3011 24.8467 12.9612C24.6873 12.751 24.4568 12.6004 24.1947 12.535C23.9324 12.4697 23.6548 12.4936 23.4089 12.6028C22.4281 13.0093 21.737 14.4856 21.9878 15.5714C22.007 15.7418 22.0647 15.9061 22.1569 16.0529C22.2491 16.1996 22.3736 16.3253 22.5217 16.4211C22.6698 16.5168 22.8379 16.5804 23.0142 16.6073C23.1906 16.6342 23.3709 16.6239 23.5426 16.5769C24.0611 16.4031 24.51 16.0782 24.8267 15.6477C25.1434 15.2171 25.3121 14.7024 25.3093 14.1753Z" fill="#3A3B7B"/>
<path d="M28.4783 18.2243C28.451 18.4201 28.3438 18.5974 28.1802 18.7172C28.0166 18.8371 27.8101 18.8897 27.6062 18.8635C27.4022 18.8372 27.2175 18.7343 27.0926 18.5773C26.9677 18.4203 26.9129 18.2221 26.9402 18.0264C26.9676 17.8306 27.0748 17.6533 27.2384 17.5334C27.4019 17.4135 27.6084 17.361 27.8124 17.3872C28.0163 17.4135 28.2011 17.5164 28.326 17.6734C28.4509 17.8303 28.5057 18.0285 28.4783 18.2243ZM27.9935 11.0089C28.0995 10.8535 28.255 10.7352 28.4368 10.6716C28.6185 10.608 28.8169 10.6025 29.0022 10.6559C29.1906 10.7011 29.357 10.8071 29.4737 10.9561C29.5904 11.105 29.6501 11.288 29.6431 11.4742C29.6185 11.773 29.5719 12.0697 29.5038 12.3621C29.3198 13.3516 29.1415 14.3411 28.9465 15.3199C28.8573 15.7104 28.7403 16.0848 28.6121 16.4806C28.5675 16.6043 28.493 16.7161 28.3948 16.8069C28.3337 16.8751 28.2557 16.9275 28.1679 16.9591C28.0801 16.9907 27.9855 17.0006 27.8927 16.9878C27.7999 16.975 27.712 16.94 27.6371 16.8859C27.5621 16.8318 27.5027 16.7605 27.4641 16.6785C27.3978 16.5314 27.3618 16.3734 27.3582 16.2132C27.3582 15.5499 27.3582 14.8813 27.4028 14.2127C27.4785 13.2586 27.6275 12.3111 27.8486 11.3779C27.8746 11.2529 27.9237 11.1334 27.9935 11.0249V11.0089Z" fill="#3A3B7B"/>
<path fill-rule="evenodd" clip-rule="evenodd" d="M2.99459 22.5224C2.92879 22.6634 2.91074 22.8206 2.9429 22.9718C2.96429 23.1712 3.01127 23.3673 3.08278 23.5557C3.17205 23.7864 3.27195 24.0145 3.39513 24.2956C3.42346 24.3603 3.45306 24.4278 3.48403 24.4989C3.65014 24.8798 3.85857 25.3665 4.13658 26.071C4.21527 26.2711 4.28514 26.4729 4.35551 26.676C4.38393 26.7581 4.41246 26.8404 4.44166 26.923C4.54633 27.2164 4.72643 27.48 4.96516 27.6889C5.06653 27.8038 5.20099 27.8874 5.35176 27.9293C5.50548 27.9719 5.66896 27.9692 5.82104 27.9215C5.97312 27.8738 6.10669 27.7832 6.20442 27.6616C6.30023 27.5423 6.3572 27.3987 6.36827 27.2485C6.43043 26.9561 6.40921 26.6529 6.30677 26.371C6.14417 25.9029 5.95896 25.4341 5.74537 24.9756L5.74439 24.9736C5.39303 24.2563 5.03587 23.5439 4.66182 22.8312L4.65902 22.8262C4.54952 22.6406 4.40721 22.4746 4.23849 22.3358C4.12896 22.2119 3.97788 22.1283 3.81103 22.0995C3.64062 22.0701 3.46488 22.0997 3.31516 22.1831C3.17353 22.2608 3.06126 22.3795 2.99459 22.5224Z" fill="#3A3B7B"/>
<path fill-rule="evenodd" clip-rule="evenodd" d="M8.36117 20.756C7.81024 20.6191 7.23487 20.5991 6.67516 20.6976C6.24164 20.7386 5.81526 20.8345 5.51919 21.0246C5.36861 21.1214 5.24686 21.2456 5.17914 21.4036C5.11105 21.5623 5.10235 21.7439 5.15816 21.9462C5.26004 22.3168 5.39235 22.6772 5.52419 23.0363L5.54555 23.0945L5.54607 23.0958C5.94304 24.1392 6.3438 25.1791 6.74821 26.2154C6.79537 26.3788 6.86206 26.5363 6.94693 26.6849L6.94852 26.6877C7.06064 26.8723 7.20445 27.0374 7.37387 27.1761C7.4586 27.2523 7.56338 27.3051 7.677 27.3286C7.79173 27.3524 7.91105 27.3455 8.02196 27.3086C8.13291 27.2718 8.23115 27.2064 8.30602 27.1196C8.37967 27.0343 8.42791 26.9314 8.44562 26.8219C8.51871 26.5246 8.4953 26.2128 8.37846 25.9286C8.34201 25.8329 8.3134 25.7351 8.28326 25.6322C8.27321 25.5979 8.26302 25.563 8.25227 25.5275C9.17797 25.1802 10.1629 24.7132 10.5093 23.6268C10.6449 23.2514 10.6562 22.8449 10.5416 22.463C10.4269 22.0807 10.1916 21.7418 9.86813 21.4931C9.42783 21.1449 8.91349 20.8933 8.36117 20.756ZM6.83406 22.0885C6.85229 22.0835 6.87066 22.0788 6.88907 22.0745C7.49174 21.9835 8.10832 22.1047 8.62532 22.4156C8.85316 22.5676 8.94649 22.7366 8.96252 22.8992C8.97907 23.0666 8.91564 23.248 8.78824 23.4224C8.5475 23.7518 8.10819 24.0154 7.71135 24.0646C7.42205 23.4251 7.12827 22.7598 6.83406 22.0885Z" fill="#3A3B7B"/>
<path d="M12.0341 19.5856C12.6902 19.2948 13.5029 19.2446 14.1388 19.4491C14.299 19.4938 14.4379 19.5907 14.5319 19.723C14.6253 19.8546 14.6684 20.0131 14.654 20.1715C14.6531 20.2744 14.6267 20.3756 14.5772 20.4669C14.5269 20.5598 14.4539 20.6398 14.3646 20.7C14.2752 20.7601 14.172 20.7988 14.0639 20.8126C13.9556 20.8264 13.8455 20.8151 13.7429 20.7794L13.7351 20.7767L13.7277 20.773C13.6752 20.7466 13.6194 20.7268 13.5617 20.7138L13.558 20.713C13.1107 20.599 12.6887 20.788 12.5346 21.0201C12.461 21.1308 12.4519 21.2426 12.5131 21.3443C12.5787 21.4531 12.7395 21.5753 13.065 21.6624C13.1545 21.686 13.2462 21.7087 13.3393 21.7318C13.5966 21.7958 13.864 21.8622 14.1226 21.9543L14.1236 21.9547C15.3166 22.3903 15.7608 23.2926 15.6087 24.1412C15.4583 24.9804 14.728 25.7442 13.6299 25.9244C13.2303 26.0094 12.8144 25.9928 12.4235 25.8763C12.0315 25.7595 11.6783 25.5463 11.3987 25.2578L11.3914 25.2503C11.3032 25.1416 11.2438 25.0139 11.2175 24.8785C11.1933 24.7562 11.2061 24.6299 11.2542 24.5143C11.3021 24.3994 11.383 24.3 11.4875 24.2276C11.5978 24.1454 11.7308 24.0962 11.8701 24.0859C12.0088 24.0757 12.1477 24.1046 12.2695 24.1691C12.3912 24.2255 12.5044 24.2975 12.606 24.3831L12.6079 24.3847C12.7877 24.5425 13.0051 24.5836 13.2137 24.5455C13.4253 24.5069 13.6242 24.3867 13.7522 24.2273C13.8793 24.0689 13.9303 23.8807 13.8698 23.698C13.8088 23.514 13.6256 23.3078 13.2229 23.1354C13.1177 23.0926 13.0086 23.058 12.895 23.0243C12.8644 23.0152 12.8333 23.0062 12.8018 22.997C12.7179 22.9725 12.6315 22.9473 12.5468 22.9196C12.4885 22.9005 12.4306 22.8824 12.3733 22.8645C12.2167 22.8155 12.064 22.7678 11.9171 22.7038C11.5973 22.5993 11.321 22.3987 11.1293 22.1315C10.9368 21.8633 10.84 21.5426 10.8532 21.2172C10.8542 20.4243 11.3745 19.8781 12.0341 19.5856Z" fill="#3A3B7B"/>
<path d="M20.3519 19.5011C20.2247 19.4415 20.084 19.4132 19.9426 19.4187C19.8011 19.4243 19.6633 19.4636 19.5417 19.5331C19.4208 19.6021 19.3195 19.6987 19.247 19.8144C19.1805 19.9118 19.1345 20.0207 19.1115 20.1351C19.0886 20.2494 19.0891 20.3668 19.1131 20.4808C19.1368 20.6273 19.1631 20.7698 19.189 20.9104C19.232 21.1429 19.2737 21.3702 19.3013 21.602L19.3023 21.6079C19.3651 21.9714 19.398 22.339 19.4009 22.7074L19.4012 22.7126C19.4226 23.1104 19.2814 23.5005 19.0078 23.8001L19.0034 23.8054C18.9144 23.9149 18.7953 23.9985 18.6596 24.0468C18.5239 24.0952 18.3768 24.1063 18.2349 24.0789C18.093 24.0516 17.9618 23.9869 17.856 23.8921C17.7501 23.7972 17.6738 23.6757 17.6357 23.5416C17.5544 23.2592 17.5073 22.9686 17.4954 22.6758L17.6343 20.5534C17.6363 20.5257 17.6387 20.4973 17.6411 20.4686C17.6463 20.4041 17.6518 20.3384 17.654 20.2772C17.6573 20.1871 17.6545 20.0944 17.6326 20.0067C17.6102 19.9171 17.5676 19.8318 17.4921 19.7592C17.4173 19.6873 17.3164 19.6342 17.1894 19.5981C16.9596 19.5343 16.7654 19.5363 16.6036 19.6023C16.4416 19.6682 16.3307 19.7906 16.2522 19.932C16.1742 20.0722 16.1242 20.2382 16.0863 20.4044C16.0582 20.5278 16.0357 20.6573 16.0142 20.7806C16.0068 20.823 15.9995 20.8648 15.9922 20.9053L15.992 20.9065C15.8772 21.5825 15.8431 22.2689 15.8902 22.9524C15.899 23.3218 15.9792 23.6863 16.1269 24.0275C16.2935 24.4678 16.5953 24.8492 16.9924 25.1215C17.3904 25.3943 17.8653 25.5446 18.3542 25.5526C18.8432 25.5605 19.3231 25.4257 19.7304 25.166C20.1371 24.9066 20.4523 24.5349 20.6343 24.1001C20.8889 23.5461 21.0084 22.9436 20.9838 22.3386C20.9688 21.8969 20.9438 21.4518 20.9188 21.0089C20.9066 20.7917 20.8944 20.5749 20.8835 20.3595C20.878 20.1435 20.8037 19.9342 20.6707 19.7598C20.5884 19.6496 20.4789 19.5607 20.3519 19.5011Z" fill="#3A3B7B"/>
<path d="M24.8545 22.8291C24.8416 22.8449 24.828 22.8611 24.8138 22.8781C24.7103 22.3052 24.6144 21.7324 24.5183 21.1588C24.4839 20.953 24.4493 20.7463 24.4144 20.5403L24.4105 20.5173L24.3978 20.4974C24.3738 20.46 24.3714 20.4234 24.3714 20.3452V20.3361L24.37 20.3272C24.344 20.1658 24.2679 20.0155 24.1517 19.8961C24.0358 19.7771 23.8852 19.6942 23.7197 19.6583C23.5544 19.6191 23.3806 19.6278 23.2204 19.6831C23.0605 19.7383 22.9212 19.8375 22.8198 19.9682C22.7355 20.0685 22.6664 20.1798 22.6146 20.2988C22.497 20.5549 22.3785 20.8118 22.2596 21.0693L22.2575 21.0737C21.9607 21.7166 21.6619 22.3638 21.3717 23.0161L21.3708 23.0182C21.1927 23.4411 21.0457 23.8868 20.8992 24.331C20.8699 24.4197 20.8407 24.5084 20.8112 24.5968C20.7583 24.737 20.7351 24.8859 20.7431 25.0348C20.7335 25.168 20.7667 25.301 20.8384 25.4156C20.9115 25.5326 21.021 25.6247 21.1514 25.6788C21.2897 25.737 21.4442 25.7493 21.5906 25.7139C21.7367 25.6786 21.8665 25.5976 21.9594 25.4839C22.0781 25.3437 22.1803 25.1908 22.2635 25.0289C22.5093 24.5464 22.7442 24.0579 22.978 23.5716C23.0685 23.3835 23.1564 23.2151 23.2565 23.0316C23.2633 23.0542 23.2703 23.0763 23.2776 23.0984C23.3824 23.5414 23.5594 23.9656 23.8019 24.3557C23.8478 24.4383 23.9117 24.5105 23.9893 24.5674C24.0678 24.6249 24.1584 24.6653 24.2548 24.6858C24.3513 24.7063 24.4512 24.7064 24.5476 24.686C24.644 24.6658 24.7349 24.6254 24.8134 24.5681L24.9689 24.4564L26.1758 23.4807L26.1044 23.9172C26.0065 24.5173 25.9092 25.1123 25.806 25.7075C25.7384 25.9713 25.7385 26.2468 25.8062 26.5105C25.8356 26.6589 25.9104 26.7955 26.021 26.903C26.1326 27.0113 26.2756 27.0849 26.4313 27.1142C26.587 27.1436 26.7483 27.1273 26.8943 27.0675C27.0382 27.0087 27.1605 26.9102 27.246 26.7848C27.445 26.5478 27.5689 26.2609 27.6029 25.9583C27.6541 25.5309 27.712 25.0977 27.7699 24.6646C27.8366 24.1654 27.9033 23.6663 27.9596 23.1769L27.9598 23.1754C28.014 22.6396 28.0402 22.1016 28.0384 21.5632C28.0503 21.3931 28.0062 21.2236 27.9121 21.0788C27.8178 20.9335 27.678 20.8205 27.5129 20.7558C27.3411 20.6809 27.1487 20.6608 26.9642 20.6987C26.7808 20.7363 26.6149 20.8291 26.4904 20.9635C26.2678 21.1611 26.0589 21.3725 25.8652 21.5964L25.8639 21.598C25.6524 21.8509 25.4424 22.1088 25.2337 22.365C25.1068 22.5207 24.9803 22.6761 24.8545 22.8291Z" fill="#3A3B7B"/>
</g>
<defs>
<clipPath id="clip0_211_2521">
<rect width="32.7153" height="20.186" fill="white" transform="translate(-0.00726318 7.77345)"/>
</clipPath>
</defs>
</svg>
