<svg xmlns="http://www.w3.org/2000/svg" width="602" height="112" viewBox="0 0 602 112" version="1.1"><path d="M 0 56.002 L 0 112.003 301.250 111.752 L 602.500 111.500 602.758 55.750 L 603.017 0 301.508 0 L 0 0 0 56.002 M 0.467 56.500 C 0.467 87.300, 0.594 100.044, 0.749 84.821 C 0.904 69.598, 0.905 44.398, 0.749 28.821 C 0.594 13.244, 0.467 25.700, 0.467 56.500 M 3 9.616 C 3 10.669, 24.315 48.018, 24.698 47.635 C 26.461 45.873, 47.878 10.475, 47.268 10.333 C 45.777 9.985, 3 9.292, 3 9.616 M 94.235 31.199 C 87.489 42.806, 82.134 52.467, 82.335 52.669 C 82.537 52.870, 94.032 52.915, 107.879 52.767 L 133.057 52.500 120.779 31.576 C 105.801 6.052, 108.825 6.095, 94.235 31.199 M 41.739 31.390 C 35.833 41.478, 31 50.016, 31 50.365 C 31 50.714, 40.900 51, 53 51 C 65.100 51, 75 50.819, 75 50.597 C 75 49.888, 54.770 15.549, 53.602 14.275 C 52.746 13.342, 49.914 17.428, 41.739 31.390 M 162.667 15.667 C 162.300 16.033, 162 33.358, 162 54.167 L 162 92 170.482 92 L 178.964 92 179.232 68.610 L 179.500 45.221 195.518 68.360 L 211.536 91.500 218.780 91.794 L 226.024 92.088 225.762 53.794 L 225.500 15.500 217.500 15.500 L 209.500 15.500 209 38.641 L 208.500 61.783 194.500 41.246 C 175.327 13.120, 177.112 15, 169.578 15 C 166.143 15, 163.033 15.300, 162.667 15.667 M 97.848 33.234 L 88.393 49.500 98.250 49.786 C 103.671 49.943, 112.316 49.943, 117.462 49.786 L 126.817 49.500 117.641 33.815 C 112.593 25.189, 108.203 17.869, 107.883 17.550 C 107.564 17.230, 103.048 24.288, 97.848 33.234 M 548 27.500 L 548 34 544 34 L 540 34 540 40.500 L 540 47 544 47 L 548 47 548 64.352 C 548 87.929, 550.735 92.014, 566.500 91.983 C 575.956 91.965, 576.252 91.704, 574.782 84.698 C 573.628 79.194, 573.478 79, 570.365 79 C 564.534 79, 564 77.526, 564 61.429 L 564 47 569.500 47 L 575 47 575 40.500 L 575 34 569.500 34 L 564 34 564 27.500 L 564 21 556 21 L 548 21 548 27.500 M 253.008 35.316 C 228.424 43.144, 230.969 85.383, 256.402 91.659 C 271.538 95.394, 298.965 81.371, 289 74.991 C 286.416 73.337, 275.029 73.761, 274.347 75.537 C 271.710 82.411, 256.531 80.908, 253.421 73.466 C 250.617 66.753, 249.921 67, 271.638 67 L 291.276 67 290.620 60.598 C 288.462 39.535, 272.807 29.012, 253.008 35.316 M 296 34.395 C 296 34.611, 299.632 41.130, 304.071 48.879 L 312.141 62.970 304.071 76.383 C 294.083 92.981, 294.076 92.149, 304.205 91.790 L 312.410 91.500 316.309 84.500 C 323.735 71.165, 322.414 71.391, 328.662 82.385 L 334.127 92 342.064 92 C 351.721 92, 351.732 93.051, 341.896 76.629 L 333.792 63.100 341.896 49.119 C 346.353 41.430, 350 34.882, 350 34.569 C 350 34.256, 346.255 34, 341.677 34 L 333.354 34 328.622 42.975 C 322.590 54.417, 323.295 54.389, 317.585 43.411 L 312.689 34 304.345 34 C 299.755 34, 296 34.178, 296 34.395 M 368.882 36.793 C 349 47.180, 349.778 81.937, 370.082 90.394 C 386.752 97.338, 408 87.472, 408 72.788 L 408 70 400.513 70 L 393.027 70 391.549 73.536 C 386.299 86.103, 371.011 78.260, 371.011 63 C 371.011 47.886, 386.385 40.105, 391.598 52.580 L 393.027 56 400.513 56 C 408.848 56, 409.133 55.682, 406.862 48.899 C 402.364 35.464, 383.150 29.340, 368.882 36.793 M 430.500 36.383 C 396.081 52.655, 421.808 105.044, 456.820 89.982 C 465.321 86.325, 472.680 75.952, 467.718 74.622 C 461.543 72.967, 455.221 73.932, 452.154 77 C 445.601 83.553, 432 78.896, 432 70.100 L 432 67 451.134 67 L 470.269 67 469.785 60.234 C 468.269 39.045, 449.270 27.510, 430.500 36.383 M 479.452 35.264 C 479.185 35.959, 479.087 48.897, 479.233 64.014 L 479.500 91.500 487.690 91.789 L 495.880 92.079 496.190 72.618 C 496.534 51.027, 497.164 49.017, 504.021 47.646 C 513.965 45.657, 516 50.040, 516 73.450 L 516 92 524 92 L 532 92 531.978 70.250 C 531.954 46.656, 531.313 43.295, 525.882 38.317 C 518.685 31.720, 505.174 32.355, 498.331 39.611 L 495 43.142 495 38.571 L 495 34 487.469 34 C 482.321 34, 479.784 34.400, 479.452 35.264 M 257.756 47.696 C 255.433 49.186, 252 54.378, 252 56.401 C 252 56.731, 257.175 57, 263.500 57 C 274.303 57, 275 56.880, 275 55.016 C 275 48.572, 263.802 43.819, 257.756 47.696 M 438.388 46.980 C 435.652 48.086, 432 52.747, 432 55.135 C 432 56.842, 432.932 57, 443 57 C 453.750 57, 453.999 56.949, 453.968 54.750 C 453.881 48.591, 445.163 44.243, 438.388 46.980 M 29.730 59.801 C 48.701 92.678, 52.565 98.812, 53.597 97.691 C 54.898 96.280, 76.677 59.006, 77.587 56.634 C 78.157 55.148, 75.892 55, 52.587 55 L 26.960 55 29.730 59.801 M 86 57.590 C 86 58.194, 104.424 91.121, 106.496 94.220 C 107.478 95.689, 108.915 93.714, 116.320 80.720 C 121.090 72.349, 126.145 63.587, 127.553 61.250 L 130.113 57 108.057 57 C 95.926 57, 86 57.265, 86 57.590 M 35.693 62.250 C 36.732 64.037, 40.921 71.239, 45.002 78.253 C 50.766 88.162, 52.680 90.727, 53.579 89.753 C 54.215 89.064, 58.590 81.862, 63.301 73.750 L 71.866 59 52.834 59 L 33.802 59 35.693 62.250 M 69.162 77.945 C 63.023 88.517, 58 97.580, 58 98.084 C 58 98.612, 67.539 99, 80.500 99 C 92.875 99, 103 98.718, 103 98.374 C 103 97.601, 83.610 63.216, 81.704 60.610 C 80.441 58.882, 79.374 60.357, 69.162 77.945" stroke="none" fill="#263238" fill-rule="evenodd"/><path d="M 4 10.491 C 4 11.170, 23.023 45.310, 23.958 46.307 C 24.373 46.750, 29.711 39.100, 35.820 29.307 L 46.926 11.500 40.213 10.874 C 31.997 10.108, 4 9.812, 4 10.491 M 41.761 32.250 L 31.099 50.500 42.049 50.783 C 48.072 50.938, 57.869 50.938, 63.820 50.783 L 74.639 50.500 64.070 32.286 C 51.390 10.436, 54.503 10.441, 41.761 32.250 M 88.261 61.250 C 89.609 63.587, 94.444 72.142, 99.005 80.259 C 106.228 93.113, 107.455 94.791, 108.508 93.259 C 110.184 90.822, 129 57.897, 129 57.402 C 129 57.181, 119.282 57, 107.405 57 L 85.810 57 88.261 61.250 M 75.667 67.569 C 73.140 71.931, 68.195 80.450, 64.678 86.500 L 58.284 97.500 79.789 97.770 C 91.616 97.918, 101.498 97.836, 101.747 97.586 C 102.175 97.158, 84.393 65.287, 81.578 61.437 C 80.389 59.811, 79.821 60.400, 75.667 67.569" stroke="none" fill="#4daf4f" fill-rule="evenodd"/><path d="M 95.227 31.056 C 88.502 42.525, 83 52.154, 83 52.454 C 83 52.754, 94.025 53, 107.500 53 C 120.975 53, 132 52.710, 132 52.356 C 132 51.758, 111.037 15.529, 108.563 11.852 C 107.641 10.481, 105.400 13.709, 95.227 31.056 M 97.591 32.319 C 92.316 41.294, 88 48.944, 88 49.319 C 88 49.694, 96.775 50, 107.500 50 C 118.225 50, 127 49.741, 127 49.423 C 127 48.689, 107.930 16, 107.502 16 C 107.326 16, 102.867 23.344, 97.591 32.319 M 163 53.500 L 163 91 170.500 91 L 178 91 178 67.500 C 178 54.575, 178.338 44.009, 178.750 44.020 C 179.162 44.031, 186.700 54.582, 195.500 67.466 L 211.500 90.892 218.250 90.946 L 225 91 225 53.500 L 225 16 217.500 16 L 210 16 210 39.500 C 210 52.425, 209.662 62.987, 209.250 62.970 C 208.838 62.954, 201.300 52.380, 192.500 39.474 L 176.500 16.007 169.750 16.003 L 163 16 163 53.500 M 548 28 L 548 35 544.500 35 L 541 35 541 40.500 L 541 46 544.500 46 L 548 46 548.024 61.250 C 548.059 83.548, 549.904 88.313, 559.549 91.014 C 564.167 92.307, 575 91.580, 575 89.977 C 575 85.225, 572.643 78.979, 571.041 79.487 C 570.064 79.797, 568.080 79.601, 566.632 79.050 L 564 78.050 564 62.025 L 564 46 569 46 L 574 46 574 40.500 L 574 35 569 35 L 564 35 564 28 L 564 21 556 21 L 548 21 548 28 M 256.863 34.705 C 237.689 37.655, 229.399 69.162, 243.804 84.342 C 255.286 96.443, 280.913 93.834, 287.846 79.858 L 290.007 75.500 283.254 74.864 C 276.747 74.252, 276.386 74.337, 273.371 77.193 C 265.658 84.500, 252 79.645, 252 69.596 L 252 67 271.144 67 L 290.289 67 289.724 59.531 C 288.349 41.349, 275.716 31.805, 256.863 34.705 M 373.713 35.422 C 359.458 39.256, 351.548 56.613, 356.419 73.371 C 363.550 97.898, 401.548 98.558, 407.053 74.250 L 407.789 71 400.516 71 C 393.352 71, 393.224 71.046, 391.980 74.047 C 386.573 87.102, 370.824 78.878, 370.824 63 C 370.824 47.122, 386.573 38.898, 391.980 51.953 C 393.224 54.954, 393.352 55, 400.516 55 L 407.789 55 407.053 51.750 C 403.948 38.040, 389.781 31.101, 373.713 35.422 M 433 35.954 C 408.835 44.253, 410.606 84.836, 435.405 91.080 C 448.017 94.256, 468 86.879, 468 79.047 C 468 78.561, 468.252 77.506, 468.561 76.702 C 469.777 73.532, 455.944 73.885, 452.921 77.101 C 446.008 84.457, 431 79.151, 431 69.352 L 431 67 450.128 67 L 469.257 67 468.794 59.250 C 467.637 39.878, 451.727 29.523, 433 35.954 M 505.741 35.429 C 501.153 37.066, 499.229 38.595, 496.842 42.500 L 495.007 45.500 495.004 40.250 L 495 35 487.500 35 L 480 35 480 63 L 480 91 487.500 91 L 495 91 495.006 74.750 C 495.013 52.365, 497.059 47, 505.588 47 C 515.315 47, 516.430 49.504, 516.828 72.250 L 517.156 91 524.662 91 L 532.169 91 531.829 69.250 C 531.549 51.375, 531.195 46.965, 529.839 44.500 C 525.025 35.742, 515.213 32.049, 505.741 35.429 M 298.385 37.750 C 299.175 39.263, 302.744 45.610, 306.316 51.856 L 312.810 63.211 304.436 77.106 L 296.063 91 303.986 91 L 311.909 91 317.204 81.501 C 323.583 70.059, 322.388 70.057, 328.803 81.522 L 334.105 91 342.021 91 L 349.937 91 341.498 76.997 L 333.059 62.995 339.878 51.247 C 350.544 32.873, 350.360 34.998, 341.285 35.011 L 333.500 35.023 328.500 44.509 C 322.466 55.958, 323.541 55.960, 317.536 44.485 L 312.572 35 304.760 35 L 296.949 35 298.385 37.750 M 260.333 46.122 C 256.722 47.139, 252 52.214, 252 55.077 C 252 56.868, 252.826 57, 264 57 C 270.600 57, 276 56.761, 276 56.468 C 276 49.735, 267.480 44.109, 260.333 46.122 M 439.035 46.315 C 437.046 46.995, 434.595 48.948, 433.285 50.898 C 429.322 56.791, 429.654 57, 443 57 C 454.174 57, 455 56.868, 455 55.077 C 455 52.565, 450.520 47.281, 447.706 46.474 C 443.166 45.172, 442.419 45.158, 439.035 46.315 M 28.167 55.859 C 29.651 59.686, 52.649 97.702, 53.162 97.178 C 54.406 95.904, 77 56.762, 77 55.880 C 77 55.396, 65.938 55, 52.417 55 C 38.896 55, 27.983 55.387, 28.167 55.859 M 33.167 58.850 C 43.636 85.541, 52.966 92.906, 60.262 80.239 C 63.981 73.783, 68.406 66.138, 70.094 63.250 L 73.165 58 52.999 58 C 41.908 58, 32.983 58.382, 33.167 58.850" stroke="none" fill="#f6f6f6" fill-rule="evenodd"/><path d="" stroke="none" fill="#25353c" fill-rule="evenodd"/></svg>